<mxfile host="app.diagrams.net" modified="2023-09-04T23:16:35.859Z" agent="Mozilla/5.0 (Windows NT 10.0; Win64; x64) AppleWebKit/537.36 (KHTML, like Gecko) Chrome/116.0.0.0 Safari/537.36" etag="8jCutLi1O-tFtzEN59UI" version="21.7.2" type="github">
  <diagram name="Page-1" id="2a216829-ef6e-dabb-86c1-c78162f3ba2b">
    <mxGraphModel dx="2040" dy="932" grid="0" gridSize="10" guides="0" tooltips="1" connect="1" arrows="1" fold="1" page="0" pageScale="1" pageWidth="850" pageHeight="1100" background="none" math="0" shadow="0">
      <root>
        <mxCell id="0" />
        <mxCell id="1" parent="0" />
        <mxCell id="FSBz58N6oUObReiZ5gnp-5" value="PESSOA" style="swimlane;horizontal=0;whiteSpace=wrap;html=1;startSize=70;" vertex="1" parent="1">
          <mxGeometry x="450" y="490" width="680" height="240" as="geometry" />
        </mxCell>
        <mxCell id="FSBz58N6oUObReiZ5gnp-7" value="&lt;font style=&quot;font-size: 14px;&quot;&gt;iniciar tratamento&lt;/font&gt;" style="rounded=1;whiteSpace=wrap;html=1;fillColor=#dae8fc;strokeColor=#6c8ebf;" vertex="1" parent="FSBz58N6oUObReiZ5gnp-5">
          <mxGeometry x="170" y="90" width="151" height="60" as="geometry" />
        </mxCell>
        <mxCell id="FSBz58N6oUObReiZ5gnp-44" style="edgeStyle=orthogonalEdgeStyle;rounded=0;orthogonalLoop=1;jettySize=auto;html=1;entryX=0;entryY=0.5;entryDx=0;entryDy=0;" edge="1" parent="FSBz58N6oUObReiZ5gnp-5" source="FSBz58N6oUObReiZ5gnp-22" target="FSBz58N6oUObReiZ5gnp-35">
          <mxGeometry relative="1" as="geometry" />
        </mxCell>
        <mxCell id="FSBz58N6oUObReiZ5gnp-22" value="&lt;font style=&quot;font-size: 14px;&quot;&gt;Acompanhamento medico junto ao relatórios emitidos&lt;/font&gt;" style="rounded=1;whiteSpace=wrap;html=1;fillColor=#dae8fc;strokeColor=#6c8ebf;" vertex="1" parent="FSBz58N6oUObReiZ5gnp-5">
          <mxGeometry x="365" y="90" width="165" height="60" as="geometry" />
        </mxCell>
        <mxCell id="FSBz58N6oUObReiZ5gnp-32" style="edgeStyle=orthogonalEdgeStyle;rounded=0;orthogonalLoop=1;jettySize=auto;html=1;entryX=0;entryY=0.5;entryDx=0;entryDy=0;" edge="1" parent="FSBz58N6oUObReiZ5gnp-5" target="FSBz58N6oUObReiZ5gnp-7">
          <mxGeometry relative="1" as="geometry">
            <mxPoint x="100" y="120" as="sourcePoint" />
          </mxGeometry>
        </mxCell>
        <mxCell id="FSBz58N6oUObReiZ5gnp-30" value="" style="ellipse;whiteSpace=wrap;html=1;aspect=fixed;fillColor=#d5e8d4;strokeColor=#82b366;" vertex="1" parent="FSBz58N6oUObReiZ5gnp-5">
          <mxGeometry x="90" y="100" width="40" height="40" as="geometry" />
        </mxCell>
        <mxCell id="FSBz58N6oUObReiZ5gnp-35" value="" style="ellipse;whiteSpace=wrap;html=1;aspect=fixed;fillColor=#f8cecc;strokeColor=#b85450;strokeWidth=5;" vertex="1" parent="FSBz58N6oUObReiZ5gnp-5">
          <mxGeometry x="600" y="100" width="40" height="40" as="geometry" />
        </mxCell>
        <mxCell id="FSBz58N6oUObReiZ5gnp-6" value="SISTEMA" style="swimlane;horizontal=0;whiteSpace=wrap;html=1;startSize=70;" vertex="1" parent="1">
          <mxGeometry x="450" y="210" width="680" height="240" as="geometry" />
        </mxCell>
        <mxCell id="FSBz58N6oUObReiZ5gnp-40" style="edgeStyle=orthogonalEdgeStyle;rounded=0;orthogonalLoop=1;jettySize=auto;html=1;entryX=0;entryY=0.5;entryDx=0;entryDy=0;" edge="1" parent="FSBz58N6oUObReiZ5gnp-6" source="FSBz58N6oUObReiZ5gnp-14" target="FSBz58N6oUObReiZ5gnp-19">
          <mxGeometry relative="1" as="geometry" />
        </mxCell>
        <mxCell id="FSBz58N6oUObReiZ5gnp-14" value="" style="ellipse;whiteSpace=wrap;html=1;aspect=fixed;fillColor=#d5e8d4;strokeColor=#82b366;" vertex="1" parent="FSBz58N6oUObReiZ5gnp-6">
          <mxGeometry x="225" y="100" width="40" height="40" as="geometry" />
        </mxCell>
        <mxCell id="FSBz58N6oUObReiZ5gnp-37" style="edgeStyle=orthogonalEdgeStyle;rounded=0;orthogonalLoop=1;jettySize=auto;html=1;entryX=0;entryY=0.5;entryDx=0;entryDy=0;" edge="1" parent="FSBz58N6oUObReiZ5gnp-6" source="FSBz58N6oUObReiZ5gnp-19" target="FSBz58N6oUObReiZ5gnp-36">
          <mxGeometry relative="1" as="geometry" />
        </mxCell>
        <mxCell id="FSBz58N6oUObReiZ5gnp-19" value="&lt;font style=&quot;font-size: 14px;&quot;&gt;Emitir relatórios para acompanhamento da evolução&lt;/font&gt;" style="rounded=1;whiteSpace=wrap;html=1;fillColor=#dae8fc;strokeColor=#6c8ebf;" vertex="1" parent="FSBz58N6oUObReiZ5gnp-6">
          <mxGeometry x="365" y="90" width="165" height="60" as="geometry" />
        </mxCell>
        <mxCell id="FSBz58N6oUObReiZ5gnp-36" value="" style="ellipse;whiteSpace=wrap;html=1;aspect=fixed;fillColor=#f8cecc;strokeColor=#b85450;strokeWidth=5;" vertex="1" parent="FSBz58N6oUObReiZ5gnp-6">
          <mxGeometry x="600" y="100" width="40" height="40" as="geometry" />
        </mxCell>
        <mxCell id="FSBz58N6oUObReiZ5gnp-23" style="edgeStyle=orthogonalEdgeStyle;rounded=0;orthogonalLoop=1;jettySize=auto;html=1;entryX=0.5;entryY=0;entryDx=0;entryDy=0;startArrow=oval;startFill=0;endArrow=block;endFill=0;" edge="1" parent="1" source="FSBz58N6oUObReiZ5gnp-19" target="FSBz58N6oUObReiZ5gnp-22">
          <mxGeometry relative="1" as="geometry" />
        </mxCell>
        <mxCell id="FSBz58N6oUObReiZ5gnp-41" style="edgeStyle=orthogonalEdgeStyle;rounded=0;orthogonalLoop=1;jettySize=auto;html=1;entryX=0.5;entryY=1;entryDx=0;entryDy=0;startArrow=oval;startFill=0;endArrow=block;endFill=0;" edge="1" parent="1" source="FSBz58N6oUObReiZ5gnp-7" target="FSBz58N6oUObReiZ5gnp-14">
          <mxGeometry relative="1" as="geometry" />
        </mxCell>
        <mxCell id="FSBz58N6oUObReiZ5gnp-39" value="&lt;font style=&quot;font-size: 14px;&quot;&gt;Cadastrar informações relevantes&lt;/font&gt;" style="text;html=1;strokeColor=none;fillColor=none;align=center;verticalAlign=middle;whiteSpace=wrap;rounded=0;" vertex="1" parent="1">
          <mxGeometry x="692" y="459" width="160" height="30" as="geometry" />
        </mxCell>
        <mxCell id="FSBz58N6oUObReiZ5gnp-43" value="&lt;font style=&quot;font-size: 14px;&quot;&gt;Relatório&lt;/font&gt;" style="text;html=1;strokeColor=none;fillColor=none;align=center;verticalAlign=middle;whiteSpace=wrap;rounded=0;" vertex="1" parent="1">
          <mxGeometry x="900" y="456" width="60" height="30" as="geometry" />
        </mxCell>
      </root>
    </mxGraphModel>
  </diagram>
</mxfile>
